<svg xmlns="http://www.w3.org/2000/svg" xmlns:xlink="http://www.w3.org/1999/xlink" width="500" zoomAndPan="magnify" viewBox="0 0 375 374.999991" height="500" preserveAspectRatio="xMidYMid meet" version="1.0"><path fill="#ffffff" d="M 154.117188 4.464844 C 141.574219 2.292969 127.753906 8.15625 121.332031 19.308594 C 119.53125 22.203125 117.34375 26.324219 113.207031 25.414062 C 102.179688 23.578125 90.511719 24.78125 80.824219 30.648438 C 63.699219 40.183594 54.476562 63.230469 63.328125 81.34375 C 65.941406 85.742188 62.304688 91.773438 57.296875 91.941406 C 42.378906 94.261719 29.207031 107.046875 28.351562 122.433594 C 27.667969 129.074219 29.800781 135.53125 33.011719 141.265625 C 35.890625 145.328125 33.753906 151.582031 28.894531 152.847656 C 13.546875 158.171875 0.0976562 175.691406 6.292969 192.203125 C 8.316406 199.347656 14.066406 204.222656 18.929688 209.457031 C 22.121094 213.242188 18.800781 218.160156 18.152344 222.222656 C 25.683594 213.765625 36.097656 208.382812 47.246094 206.636719 C 55.277344 185.796875 79.679688 173.457031 101.222656 179.503906 C 108.035156 181.992188 107.367188 193.3125 100.09375 194.738281 C 93.394531 194.757812 86.492188 192.773438 79.996094 195.386719 C 69.589844 198.488281 62.777344 208.042969 59.9375 218.101562 C 58.304688 223.074219 52.238281 222.238281 48.152344 223.019531 C 35.347656 224.445312 25.183594 235.691406 23.457031 248.238281 C 29.050781 252.707031 27.066406 260.503906 30.257812 266.292969 C 36.046875 279.582031 51.023438 287.039062 65.140625 285.796875 C 69.539062 285.167969 73.675781 288.75 73.511719 293.253906 C 72.050781 300.566406 68.222656 307.746094 69.746094 315.425781 C 71.996094 330.976562 86.46875 343.28125 102.089844 343.539062 C 107.550781 343.039062 113.335938 344.820312 115.542969 350.292969 C 124.542969 367.664062 149.09375 372.484375 164.867188 361.628906 C 174.644531 355.46875 180.191406 343.777344 179.527344 332.332031 C 179.25 305.871094 179.933594 279.371094 179.195312 252.953125 C 175.390625 245.921875 176.816406 237.382812 172.699219 230.460938 C 166.148438 217.769531 151.082031 210.792969 137.109375 212.480469 C 123.511719 213.835938 110.519531 222.664062 105.679688 235.710938 C 120.578125 240.476562 133.398438 254.652344 131.839844 271.019531 C 131.0625 278.316406 119.222656 279.464844 116.886719 272.671875 C 115.808594 267.535156 115.773438 261.707031 111.875 257.699219 C 104.488281 248.625 88.957031 248.941406 81.941406 258.296875 C 78.007812 262.5625 78.828125 268.742188 76.929688 273.824219 C 73.515625 279.390625 63.21875 277.792969 62.457031 270.988281 C 60.933594 254.433594 74.019531 239.21875 89.886719 235.878906 C 94.429688 217.65625 109.722656 203.148438 127.945312 198.96875 C 146.203125 193.808594 166.597656 199.953125 179.585938 213.644531 C 179.4375 177.054688 179.476562 140.441406 179.550781 103.851562 C 164.597656 116.265625 143.792969 122.332031 124.808594 116.691406 C 116.183594 113.800781 107 110.324219 100.890625 103.273438 C 96.9375 97.335938 104.285156 89.265625 110.5 92.03125 C 115.863281 95.277344 120.949219 99.15625 127.054688 100.957031 C 139.46875 105.375 153.769531 103.390625 164.59375 95.914062 C 172.496094 90.625 180.011719 82.589844 180.234375 72.546875 C 180.34375 59.539062 180.3125 46.535156 180.234375 33.527344 C 180.226562 19.125 168 6.671875 154.117188 4.464844 Z M 154.117188 4.464844 " fill-opacity="1" fill-rule="nonzero"/><path fill="#ffffff" d="M 356.898438 160.691406 C 353.390625 156.871094 356.730469 151.746094 357.492188 147.519531 C 350.070312 156.070312 339.585938 161.414062 328.472656 163.175781 C 320.046875 183.90625 296.296875 196.835938 274.382812 191.417969 C 266.980469 189.597656 267.054688 177.683594 274.511719 175.941406 C 280.78125 175.644531 287.183594 177.851562 293.34375 175.71875 C 304.234375 173.066406 311.863281 163.433594 314.738281 152.96875 C 316.167969 147.605469 322.535156 148.425781 326.800781 147.648438 C 339.53125 146.144531 349.570312 134.976562 351.386719 122.519531 C 348.082031 119.628906 347.042969 115.527344 346.691406 111.332031 C 343.984375 95.226562 327.675781 83.851562 311.714844 84.894531 C 306.964844 85.839844 301.25 83.1875 301.339844 77.746094 C 302.660156 69.84375 307.054688 62.105469 304.828125 53.882812 C 301.785156 37.554688 285.417969 25.84375 269.046875 27.03125 C 262.105469 28.160156 260.273438 20.367188 256.710938 16.214844 C 244.5 0.71875 218.648438 -0.0195312 205.144531 14.15625 C 198.074219 21.746094 193.988281 32.230469 194.511719 42.640625 C 194.621094 71.105469 194.476562 99.589844 194.566406 128.054688 C 194.640625 143.582031 207.589844 156.742188 222.507812 159.339844 C 239.691406 162.773438 258.824219 153.238281 265.242188 136.667969 C 250.621094 131.785156 237.984375 118.277344 238.890625 102.09375 C 238.855469 94.488281 250.5625 92.484375 253.773438 98.9375 C 255.125 104.113281 254.808594 110.109375 258.761719 114.285156 C 265.929688 123.453125 281.363281 123.453125 288.601562 114.339844 C 292.554688 110.148438 292.257812 104.097656 293.648438 98.863281 C 296.914062 92.519531 308.398438 94.503906 308.492188 102.019531 C 309.476562 118.421875 296.472656 133.097656 280.808594 136.476562 C 275.167969 161.121094 249.207031 177.375 224.636719 174.816406 C 213.429688 173.921875 203.277344 168.363281 194.519531 161.625 C 194.554688 190.480469 194.5 219.332031 194.554688 248.207031 C 203.5 247.632812 211.8125 243.515625 220.792969 243.214844 C 233.171875 242.753906 245.730469 247.207031 254.789062 255.707031 C 263.324219 263.871094 268.449219 275.210938 269.988281 286.84375 C 282.421875 294.171875 289.285156 311.265625 281.730469 324.328125 C 277.742188 329.949219 268.464844 325.554688 268.632812 319.261719 C 268.726562 314.679688 270.523438 309.726562 268.054688 305.441406 C 264.867188 298.742188 255.902344 295.734375 249.40625 299.5 C 244.65625 301.65625 243.488281 307.203125 240.183594 310.765625 C 236.363281 314.082031 230.070312 312.414062 228.085938 307.886719 C 225.824219 303.191406 229.035156 298.253906 231.425781 294.320312 C 236.417969 286.621094 245.363281 282.835938 254.140625 281.5 C 250.578125 270.3125 241.523438 261.128906 229.8125 258.824219 C 217.917969 255.46875 207.082031 263.390625 195.316406 263.1875 C 195.347656 288.683594 195.207031 314.164062 195.367188 339.65625 C 195.925781 354.816406 209.789062 367.339844 224.613281 368.160156 C 236.878906 369.179688 249.121094 362.613281 255.582031 352.238281 C 257.363281 350.03125 258.570312 346.726562 261.671875 346.09375 C 264.710938 345.835938 267.738281 346.523438 270.78125 346.691406 C 288.816406 348.398438 307.464844 337.414062 314.164062 320.46875 C 318.429688 310.632812 318.28125 299.109375 313.628906 289.464844 C 311.238281 284.714844 315.761719 279.292969 320.71875 279.332031 C 337.378906 276.582031 351.167969 260.179688 348.683594 243.019531 C 348.4375 236.914062 344.320312 232.035156 342.761719 226.335938 C 342.410156 220.675781 347.882812 218.597656 352.136719 216.800781 C 366.5 210.550781 374.957031 192.863281 369.410156 177.925781 C 367.367188 170.835938 361.875 165.792969 356.898438 160.691406 Z M 356.898438 160.691406 " fill-opacity="1" fill-rule="nonzero"/></svg>