<svg xmlns="http://www.w3.org/2000/svg" xmlns:xlink="http://www.w3.org/1999/xlink" width="500" zoomAndPan="magnify" viewBox="0 0 375 374.999991" height="500" preserveAspectRatio="xMidYMid meet" version="1.0"><defs><clipPath id="2552191338"><path d="M 25.617188 45 L 349.617188 45 L 349.617188 329.839844 L 25.617188 329.839844 Z M 25.617188 45 " clip-rule="nonzero"/></clipPath></defs><g clip-path="url(#2552191338)"><path fill="#a6a6a6" d="M 349.382812 229.589844 L 349.382812 283.898438 C 349.378906 285.382812 349.308594 286.859375 349.160156 288.332031 C 349.011719 289.804688 348.796875 291.269531 348.503906 292.722656 C 348.214844 294.175781 347.855469 295.609375 347.421875 297.027344 C 346.992188 298.441406 346.492188 299.835938 345.925781 301.203125 C 345.359375 302.570312 344.726562 303.910156 344.027344 305.214844 C 343.328125 306.519531 342.566406 307.789062 341.742188 309.019531 C 340.917969 310.25 340.039062 311.441406 339.097656 312.585938 C 338.160156 313.730469 337.164062 314.824219 336.117188 315.871094 C 335.070312 316.917969 333.972656 317.914062 332.828125 318.851562 C 331.683594 319.792969 330.496094 320.675781 329.265625 321.496094 C 328.035156 322.320312 326.765625 323.082031 325.460938 323.78125 C 324.152344 324.480469 322.816406 325.113281 321.449219 325.679688 C 320.082031 326.246094 318.6875 326.746094 317.269531 327.175781 C 315.855469 327.609375 314.417969 327.96875 312.964844 328.257812 C 311.515625 328.546875 310.050781 328.765625 308.578125 328.914062 C 307.101562 329.058594 305.625 329.132812 304.144531 329.136719 L 70.855469 329.136719 C 69.375 329.132812 67.894531 329.058594 66.421875 328.914062 C 64.949219 328.765625 63.484375 328.546875 62.03125 328.257812 C 60.582031 327.96875 59.144531 327.609375 57.730469 327.175781 C 56.3125 326.746094 54.917969 326.246094 53.550781 325.679688 C 52.183594 325.113281 50.847656 324.480469 49.539062 323.78125 C 48.234375 323.082031 46.964844 322.320312 45.734375 321.496094 C 44.503906 320.675781 43.316406 319.792969 42.167969 318.851562 C 41.023438 317.914062 39.929688 316.917969 38.882812 315.871094 C 37.835938 314.824219 36.839844 313.730469 35.902344 312.585938 C 34.960938 311.441406 34.078125 310.25 33.257812 309.019531 C 32.433594 307.789062 31.671875 306.519531 30.972656 305.214844 C 30.273438 303.910156 29.640625 302.570312 29.074219 301.203125 C 28.507812 299.835938 28.007812 298.441406 27.574219 297.027344 C 27.144531 295.609375 26.785156 294.175781 26.496094 292.722656 C 26.203125 291.269531 25.984375 289.804688 25.839844 288.332031 C 25.691406 286.859375 25.617188 285.382812 25.617188 283.898438 L 25.617188 229.589844 C 25.617188 228.671875 25.707031 227.765625 25.882812 226.867188 C 26.0625 225.964844 26.328125 225.09375 26.679688 224.246094 C 27.027344 223.398438 27.457031 222.59375 27.96875 221.832031 C 28.476562 221.070312 29.054688 220.367188 29.703125 219.71875 C 30.351562 219.070312 31.054688 218.492188 31.816406 217.980469 C 32.578125 217.472656 33.382812 217.042969 34.230469 216.691406 C 35.078125 216.339844 35.949219 216.074219 36.847656 215.898438 C 37.746094 215.71875 38.65625 215.628906 39.570312 215.628906 C 40.488281 215.628906 41.394531 215.71875 42.296875 215.898438 C 43.195312 216.074219 44.066406 216.339844 44.914062 216.691406 C 45.761719 217.042969 46.566406 217.472656 47.328125 217.980469 C 48.089844 218.492188 48.792969 219.070312 49.441406 219.71875 C 50.089844 220.367188 50.667969 221.070312 51.175781 221.832031 C 51.6875 222.59375 52.117188 223.398438 52.464844 224.246094 C 52.816406 225.09375 53.082031 225.964844 53.261719 226.867188 C 53.4375 227.765625 53.527344 228.671875 53.527344 229.589844 L 53.527344 281.457031 C 53.527344 282.105469 53.5625 282.75 53.625 283.394531 C 53.6875 284.039062 53.785156 284.679688 53.910156 285.3125 C 54.039062 285.949219 54.195312 286.574219 54.382812 287.195312 C 54.574219 287.8125 54.792969 288.421875 55.039062 289.019531 C 55.289062 289.617188 55.5625 290.199219 55.871094 290.773438 C 56.175781 291.34375 56.507812 291.894531 56.867188 292.433594 C 57.226562 292.972656 57.613281 293.492188 58.023438 293.992188 C 58.433594 294.492188 58.867188 294.972656 59.324219 295.429688 C 59.785156 295.886719 60.261719 296.320312 60.761719 296.730469 C 61.261719 297.140625 61.78125 297.527344 62.320312 297.886719 C 62.859375 298.246094 63.414062 298.578125 63.984375 298.882812 C 64.554688 299.1875 65.136719 299.464844 65.734375 299.714844 C 66.332031 299.960938 66.941406 300.179688 67.5625 300.367188 C 68.179688 300.554688 68.808594 300.714844 69.441406 300.839844 C 70.078125 300.96875 70.714844 301.0625 71.359375 301.128906 C 72.003906 301.191406 72.648438 301.222656 73.296875 301.222656 L 301.703125 301.222656 C 302.347656 301.222656 302.996094 301.191406 303.640625 301.128906 C 304.28125 301.0625 304.921875 300.96875 305.558594 300.839844 C 306.191406 300.714844 306.820312 300.554688 307.4375 300.367188 C 308.058594 300.179688 308.664062 299.960938 309.261719 299.714844 C 309.859375 299.464844 310.445312 299.1875 311.015625 298.882812 C 311.585938 298.578125 312.140625 298.246094 312.679688 297.886719 C 313.21875 297.527344 313.738281 297.140625 314.238281 296.730469 C 314.738281 296.320312 315.214844 295.886719 315.671875 295.429688 C 316.132812 294.972656 316.566406 294.492188 316.976562 293.992188 C 317.386719 293.492188 317.773438 292.972656 318.132812 292.433594 C 318.492188 291.894531 318.824219 291.34375 319.128906 290.773438 C 319.433594 290.199219 319.710938 289.617188 319.960938 289.019531 C 320.207031 288.421875 320.425781 287.8125 320.613281 287.195312 C 320.804688 286.574219 320.960938 285.949219 321.085938 285.3125 C 321.214844 284.679688 321.308594 284.039062 321.375 283.394531 C 321.4375 282.75 321.472656 282.105469 321.472656 281.457031 L 321.472656 229.589844 C 321.472656 228.671875 321.5625 227.765625 321.738281 226.867188 C 321.917969 225.96875 322.183594 225.09375 322.535156 224.25 C 322.882812 223.402344 323.316406 222.597656 323.824219 221.835938 C 324.332031 221.074219 324.910156 220.367188 325.558594 219.71875 C 326.207031 219.074219 326.910156 218.496094 327.675781 217.984375 C 328.4375 217.476562 329.238281 217.046875 330.085938 216.695312 C 330.933594 216.34375 331.804688 216.082031 332.703125 215.902344 C 333.601562 215.722656 334.511719 215.632812 335.425781 215.632812 C 336.34375 215.632812 337.25 215.722656 338.148438 215.902344 C 339.046875 216.082031 339.921875 216.34375 340.769531 216.695312 C 341.613281 217.046875 342.417969 217.476562 343.179688 217.984375 C 343.941406 218.496094 344.648438 219.074219 345.296875 219.71875 C 345.941406 220.367188 346.519531 221.074219 347.03125 221.835938 C 347.539062 222.597656 347.96875 223.402344 348.320312 224.25 C 348.671875 225.09375 348.933594 225.96875 349.113281 226.867188 C 349.292969 227.765625 349.382812 228.671875 349.382812 229.589844 Z M 142.570312 130.257812 L 169.128906 103.699219 C 169.527344 103.300781 170.003906 103.046875 170.558594 102.9375 C 171.109375 102.828125 171.648438 102.878906 172.171875 103.097656 C 172.691406 103.3125 173.109375 103.65625 173.421875 104.125 C 173.734375 104.59375 173.894531 105.109375 173.894531 105.675781 L 173.894531 237.074219 C 173.894531 237.988281 173.980469 238.898438 174.160156 239.796875 C 174.339844 240.695312 174.605469 241.566406 174.957031 242.414062 C 175.304688 243.261719 175.734375 244.066406 176.246094 244.828125 C 176.753906 245.589844 177.332031 246.292969 177.980469 246.941406 C 178.628906 247.589844 179.332031 248.167969 180.09375 248.675781 C 180.855469 249.1875 181.660156 249.617188 182.507812 249.964844 C 183.355469 250.316406 184.226562 250.582031 185.125 250.761719 C 186.023438 250.9375 186.933594 251.027344 187.847656 251.027344 C 188.765625 251.027344 189.671875 250.9375 190.570312 250.761719 C 191.46875 250.582031 192.34375 250.316406 193.1875 249.964844 C 194.035156 249.617188 194.839844 249.1875 195.601562 248.675781 C 196.363281 248.167969 197.070312 247.589844 197.714844 246.941406 C 198.363281 246.292969 198.941406 245.589844 199.453125 244.828125 C 199.960938 244.066406 200.390625 243.261719 200.742188 242.414062 C 201.09375 241.566406 201.355469 240.695312 201.535156 239.796875 C 201.714844 238.898438 201.804688 237.988281 201.804688 237.074219 L 201.804688 106.371094 C 201.804688 105.808594 201.960938 105.289062 202.273438 104.820312 C 202.585938 104.351562 203.003906 104.007812 203.527344 103.792969 C 204.046875 103.582031 204.585938 103.53125 205.136719 103.640625 C 205.691406 103.75 206.167969 104.003906 206.570312 104.398438 L 232.429688 130.257812 C 233.085938 130.890625 233.800781 131.449219 234.566406 131.941406 C 235.332031 132.4375 236.136719 132.851562 236.980469 133.191406 C 237.824219 133.53125 238.695312 133.785156 239.589844 133.957031 C 240.484375 134.132812 241.386719 134.21875 242.296875 134.21875 C 243.207031 134.21875 244.109375 134.132812 245.003906 133.957031 C 245.898438 133.785156 246.765625 133.53125 247.613281 133.191406 C 248.457031 132.851562 249.261719 132.4375 250.027344 131.941406 C 250.792969 131.449219 251.503906 130.890625 252.164062 130.257812 C 252.808594 129.609375 253.386719 128.90625 253.894531 128.144531 C 254.402344 127.382812 254.832031 126.578125 255.183594 125.730469 C 255.53125 124.886719 255.796875 124.011719 255.972656 123.113281 C 256.152344 122.214844 256.242188 121.308594 256.242188 120.394531 C 256.242188 119.476562 256.152344 118.570312 255.972656 117.671875 C 255.796875 116.773438 255.53125 115.902344 255.183594 115.054688 C 254.832031 114.207031 254.402344 113.402344 253.894531 112.640625 C 253.386719 111.878906 252.808594 111.175781 252.164062 110.527344 L 187.5 45.863281 L 122.835938 110.527344 C 122.191406 111.175781 121.613281 111.878906 121.105469 112.640625 C 120.597656 113.402344 120.167969 114.207031 119.816406 115.054688 C 119.46875 115.902344 119.203125 116.773438 119.023438 117.671875 C 118.847656 118.570312 118.757812 119.476562 118.757812 120.394531 C 118.757812 121.308594 118.847656 122.214844 119.023438 123.113281 C 119.203125 124.011719 119.46875 124.882812 119.816406 125.730469 C 120.167969 126.578125 120.597656 127.382812 121.105469 128.144531 C 121.613281 128.90625 122.191406 129.609375 122.835938 130.257812 C 123.496094 130.890625 124.207031 131.449219 124.972656 131.941406 C 125.738281 132.4375 126.542969 132.851562 127.386719 133.191406 C 128.234375 133.53125 129.101562 133.785156 129.996094 133.957031 C 130.890625 134.132812 131.792969 134.21875 132.703125 134.21875 C 133.613281 134.21875 134.515625 134.132812 135.410156 133.957031 C 136.304688 133.785156 137.171875 133.53125 138.019531 133.191406 C 138.863281 132.851562 139.667969 132.4375 140.433594 131.941406 C 141.199219 131.449219 141.910156 130.890625 142.570312 130.257812 Z M 142.570312 130.257812 " fill-opacity="1" fill-rule="nonzero"/></g></svg>